<?xml version="1.0" standalone="no"?>
<!DOCTYPE svg PUBLIC "-//W3C//DTD SVG 20010904//EN"
 "http://www.w3.org/TR/2001/REC-SVG-20010904/DTD/svg10.dtd">
<svg version="1.0" xmlns="http://www.w3.org/2000/svg"
 width="400.000000pt" height="400.000000pt" viewBox="0 0 400.000000 400.000000"
 preserveAspectRatio="xMidYMid meet">
<metadata>
Created by potrace 1.11, written by Peter Selinger 2001-2013
</metadata>
<g transform="translate(0.000000,400.000000) scale(0.100000,-0.100000)"
fill="#000000" stroke="none">
<path d="M2535 3630 c-27 -4 -72 -10 -100 -14 -27 -3 -61 -8 -75 -11 -14 -3
-45 -8 -70 -11 -116 -15 -469 -117 -583 -168 -18 -8 -76 -31 -129 -51 -99 -37
-142 -65 -210 -132 -37 -36 -48 -66 -29 -78 6 -3 6 -17 -1 -36 -9 -27 -7 -36
18 -71 34 -49 88 -79 141 -80 46 0 190 53 374 138 110 50 175 72 335 113 109
28 215 52 234 55 267 37 525 18 648 -49 26 -14 79 -56 118 -94 56 -54 75 -80
89 -121 16 -48 22 -140 11 -159 -3 -4 -8 -22 -11 -40 -39 -220 -193 -546 -327
-692 -18 -20 -69 -77 -112 -125 -178 -199 -296 -302 -548 -481 -92 -64 -416
-270 -483 -305 -27 -14 -75 -39 -105 -55 -30 -16 -84 -42 -120 -57 -36 -16
-83 -37 -105 -47 -96 -44 -324 -126 -334 -120 -21 14 57 189 112 250 25 27 43
66 65 134 17 53 52 143 77 199 43 96 54 121 82 173 6 11 15 34 20 50 7 24 14
30 36 30 15 -1 26 4 25 10 -1 5 4 27 11 47 7 21 10 46 7 56 -5 13 5 27 32 50
27 21 47 50 62 89 13 32 43 99 66 149 23 51 50 116 60 145 10 30 27 78 38 107
18 47 19 58 7 100 -15 57 -36 92 -56 92 -8 0 -15 4 -15 10 0 22 -78 58 -150
69 -41 6 -83 10 -92 8 -38 -7 -77 -59 -99 -131 -51 -169 -85 -268 -127 -371
-108 -264 -326 -925 -387 -1174 -33 -136 -48 -176 -64 -166 -4 2 -27 5 -52 6
-69 2 -158 29 -170 51 -6 11 -8 37 -4 59 8 46 15 125 18 189 1 28 13 64 30 95
32 57 48 167 21 144 -25 -20 -24 -5 1 46 26 50 33 91 15 80 -6 -4 -24 -33 -40
-65 -16 -32 -41 -75 -54 -95 -14 -20 -28 -53 -32 -74 -4 -20 -12 -43 -19 -51
-7 -8 -15 -35 -18 -60 -3 -25 -15 -76 -27 -115 -15 -50 -21 -99 -21 -172 -1
-97 1 -107 31 -165 18 -35 48 -80 68 -100 26 -28 33 -40 24 -50 -7 -9 -7 -17
1 -28 24 -30 108 -81 142 -87 26 -4 40 -14 50 -33 8 -15 11 -30 8 -33 -3 -4
-1 -13 6 -21 17 -20 48 -9 55 20 10 39 30 45 212 63 71 7 97 16 192 64 86 43
118 55 148 52 41 -3 112 27 169 71 17 12 43 26 60 30 16 4 38 16 50 26 11 11
56 37 100 59 44 22 87 43 95 48 8 4 27 14 41 22 14 8 75 46 135 86 60 39 160
104 223 145 161 103 372 271 466 370 94 100 204 231 224 267 8 15 35 47 62 73
53 51 119 148 168 248 18 36 45 90 61 120 43 83 128 346 136 420 3 36 8 79 10
95 3 29 3 55 2 165 0 30 3 71 7 90 5 26 0 53 -20 105 -31 84 -57 160 -80 235
-9 30 -26 66 -39 81 -28 32 -96 79 -166 114 -30 15 -66 38 -80 50 -94 87 -365
149 -545 125z m488 -1597 c-3 -10 -20 -33 -37 -51 -21 -22 -30 -41 -28 -57 3
-25 -42 -80 -58 -70 -15 10 -68 -44 -63 -64 3 -13 -8 -28 -37 -51 -35 -28 -39
-35 -26 -42 22 -12 11 -27 -14 -21 -15 4 -35 -9 -73 -46 -67 -65 -93 -83 -115
-79 -12 2 -3 12 30 33 26 16 53 40 60 53 7 14 27 34 45 47 18 12 56 55 84 94
28 40 64 80 80 90 17 9 27 22 24 29 -4 11 118 152 131 152 2 0 1 -8 -3 -17z
m-468 -439 c-23 -18 -75 -46 -75 -41 0 9 36 44 50 50 32 12 46 7 25 -9z
m-1231 -722 c-4 -13 -14 -22 -26 -22 -15 0 -18 4 -12 23 13 43 49 43 38 -1z
m-86 -21 c-19 -31 -88 -48 -88 -22 0 8 92 51 98 46 2 -2 -3 -13 -10 -24z m257
-35 c-30 -20 -142 -66 -163 -66 -10 0 -23 -5 -29 -11 -6 -6 -19 -9 -29 -7 -26
5 25 32 131 69 91 31 120 36 90 15z m-648 -64 c-10 -2 -26 -1 -35 3 -14 5 -14
8 -2 15 8 5 22 4 34 -3 19 -10 20 -11 3 -15z"/>
<path d="M2480 1705 c-13 -14 -21 -28 -18 -31 8 -8 55 24 62 42 9 23 -18 16
-44 -11z"/>
<path d="M2340 1624 c-60 -31 -71 -46 -18 -25 13 5 42 14 66 20 23 7 42 16 42
20 0 21 -30 16 -90 -15z"/>
</g>
</svg>
